<svg width="24" height="24" viewBox="0 0 24 24" fill="none" xmlns="http://www.w3.org/2000/svg">
<path d="M10.5 0.0703144C8.41875 0.328127 6.50625 1.10156 4.78125 2.38125C4.07812 2.90625 2.90625 4.07813 2.38125 4.78125C1.0875 6.525 0.323438 8.43281 0.065625 10.5469C-0.0140625 11.2406 -0.0140625 12.7594 0.065625 13.4531C0.323438 15.5672 1.0875 17.475 2.38125 19.2188C2.90625 19.9219 4.07812 21.0938 4.78125 21.6188C6.525 22.9125 8.43281 23.6766 10.5469 23.9344C11.2406 24.0141 12.7594 24.0141 13.4531 23.9344C15.5672 23.6766 17.475 22.9125 19.2188 21.6188C19.9219 21.0938 21.0938 19.9219 21.6188 19.2188C22.9125 17.475 23.6766 15.5672 23.9344 13.4531C24.0141 12.7594 24.0141 11.2406 23.9344 10.5469C23.6766 8.43281 22.9125 6.525 21.6188 4.78125C21.0938 4.07813 19.9219 2.90625 19.2188 2.38125C17.475 1.0875 15.5672 0.323439 13.4531 0.0656261C12.7828 -0.014061 11.1656 -0.00937271 10.5 0.0703144ZM11.25 3.91875V6.29063L10.3969 6.25781C9.58125 6.22969 7.74844 6.075 7.70625 6.03281C7.69688 6.02344 7.78125 5.77969 7.89844 5.48906C8.53594 3.89063 9.44531 2.61563 10.3875 1.9875C10.6969 1.78125 11.1 1.575 11.2406 1.54688C11.2453 1.54688 11.25 2.61563 11.25 3.91875ZM13.0734 1.66875C13.4109 1.80938 14.0156 2.26406 14.3813 2.64844C14.8641 3.15938 15.3516 3.88594 15.7313 4.66406C15.9984 5.21719 16.3359 6.04219 16.3031 6.075C16.2656 6.10781 14.4469 6.23906 13.6313 6.2625L12.7031 6.29531V3.91875V1.54219L12.8109 1.575C12.8672 1.58906 12.9844 1.63594 13.0734 1.66875ZM7.8375 2.51719C7.3125 3.24844 6.78281 4.26563 6.45 5.17969C6.35625 5.4375 6.25781 5.69063 6.23906 5.74688L6.19688 5.84531L5.54531 5.71875C4.72969 5.55938 3.84375 5.33438 3.84375 5.2875C3.84375 5.21719 5.08594 3.99844 5.41406 3.74063C6.00938 3.27656 6.62344 2.8875 7.30781 2.54531C7.68281 2.35781 8.00156 2.20313 8.025 2.20313C8.04844 2.20313 7.95938 2.34375 7.8375 2.51719ZM16.6922 2.54531C17.6859 3.04219 18.5016 3.61406 19.2844 4.35938C19.7063 4.75781 20.2219 5.34375 20.1844 5.37656C20.1469 5.41406 19.2328 5.625 18.5063 5.76094L17.8125 5.89219L17.7375 5.67656C17.2453 4.3125 16.7203 3.2625 16.1203 2.45625C16.0172 2.31563 15.9516 2.20313 15.975 2.20313C15.9938 2.20313 16.3172 2.35781 16.6922 2.54531ZM3.91406 6.84844C4.22344 6.92813 4.76719 7.05 5.12344 7.125C5.47969 7.19531 5.77969 7.26094 5.78906 7.27031C5.79844 7.27969 5.76562 7.49063 5.71406 7.73438C5.52188 8.66719 5.4375 9.36563 5.31563 10.9313L5.2875 11.2969H3.36563H1.44844L1.47656 11.025C1.64063 9.58125 1.95 8.5125 2.55938 7.27969L2.91094 6.56719L3.13125 6.6375C3.25313 6.675 3.60469 6.76875 3.91406 6.84844ZM21.4641 7.32188C22.0453 8.49375 22.35 9.55781 22.5188 11.0016L22.5516 11.25H20.6297H18.7125L18.6844 10.9547C18.6703 10.7953 18.6375 10.3688 18.6094 10.0078C18.5531 9.3 18.4313 8.4375 18.2906 7.74375L18.2016 7.3125L18.3 7.28906C18.3516 7.275 18.7688 7.19531 19.2188 7.10156C19.6688 7.0125 20.2594 6.87656 20.5312 6.80156C20.8031 6.73125 21.0469 6.66563 21.075 6.66094C21.1078 6.66094 21.2812 6.95625 21.4641 7.32188ZM8.74219 7.61719C9.20625 7.65469 9.96094 7.70156 10.4156 7.72031L11.25 7.74844V9.50156V11.25H9H6.75L6.77344 10.9078C6.86719 9.675 6.99375 8.69531 7.15313 7.96875C7.19063 7.8 7.22813 7.62188 7.24219 7.56563C7.26094 7.47656 7.27969 7.47188 7.57969 7.50938C7.75781 7.52813 8.27813 7.57969 8.74219 7.61719ZM16.7906 7.71094C17.0063 8.75156 17.1516 9.81563 17.2219 10.8609L17.2453 11.25H15H12.75V9.49219V7.73438H13.2656C13.8797 7.73438 15.1781 7.65938 15.9844 7.57031C16.7672 7.49063 16.7484 7.48594 16.7906 7.71094ZM5.31563 12.9938C5.42344 14.3016 5.45625 14.625 5.53594 15.15C5.61094 15.6656 5.70938 16.1859 5.78906 16.5328C5.8125 16.6219 5.78438 16.6359 5.47031 16.6875C5.00625 16.7625 3.76875 17.0391 3.27188 17.175L2.85938 17.2922L2.74688 17.0953C2.35781 16.4344 1.93594 15.3281 1.72031 14.4141C1.62188 13.9969 1.45312 12.9469 1.45312 12.7453C1.45312 12.7219 2.19375 12.7031 3.37031 12.7031H5.2875L5.31563 12.9938ZM11.2969 14.4563V16.1578L10.5141 16.1906C10.0781 16.2094 9.28594 16.2563 8.74219 16.2984C8.20312 16.3406 7.64531 16.3781 7.50469 16.3781L7.25156 16.3828L7.19063 16.125C7.02656 15.4219 6.8625 14.1984 6.77813 13.0641L6.75469 12.75H9.02344H11.2969V14.4563ZM17.2219 13.0641C17.1703 13.7672 17.1 14.4469 17.0109 15.0188C16.9172 15.6234 16.7625 16.3969 16.725 16.4344C16.7109 16.4438 16.4203 16.425 16.0734 16.3828C15.4828 16.3219 14.5828 16.2563 13.3031 16.1906L12.75 16.1625V14.4563V12.75H15H17.2453L17.2219 13.0641ZM22.5188 12.9938C22.35 14.4375 22.05 15.4781 21.4641 16.6734C21.2812 17.0438 21.1219 17.3438 21.1031 17.3438C21.0844 17.3438 20.8594 17.2828 20.6016 17.2078C20.0953 17.0625 19.0734 16.8281 18.5297 16.7297C18.3422 16.6969 18.1875 16.6688 18.1875 16.6594C18.1875 16.6547 18.2297 16.4484 18.2812 16.2047C18.4641 15.2953 18.6562 13.8609 18.6562 13.3453C18.6562 13.2094 18.6703 13.0219 18.6844 12.9234L18.7172 12.75H20.6344H22.5516L22.5188 12.9938ZM11.25 19.9922C11.25 21.2953 11.2406 22.3594 11.2266 22.3594C11.1469 22.3594 10.5609 22.0594 10.3313 21.9C9.80156 21.5438 9.08906 20.7281 8.67656 20.025C8.20781 19.2188 7.64063 17.9156 7.73438 17.8594C7.79063 17.8266 9.75469 17.6719 10.3594 17.6578C10.5797 17.6484 10.8703 17.6391 11.0063 17.6344L11.25 17.625V19.9922ZM14.1094 17.6953C14.6297 17.7188 16.275 17.8594 16.2984 17.8781C16.3078 17.8875 16.2281 18.1031 16.1297 18.3609C15.375 20.2922 14.2828 21.6891 13.0969 22.2234C12.9328 22.2984 12.7875 22.3594 12.7734 22.3594C12.7594 22.3594 12.75 21.2953 12.75 19.9922V17.6203L13.1625 17.6438C13.3875 17.6578 13.8141 17.6813 14.1094 17.6953ZM6.40781 18.6328C6.79219 19.6781 7.34531 20.7375 7.90313 21.5016L8.15156 21.8391L8.00156 21.7875C7.91719 21.7547 7.57969 21.5953 7.24219 21.4266C6.6 21.0984 5.9625 20.6906 5.41406 20.2547C4.68281 19.6688 3.68906 18.6234 3.80625 18.5578C3.97031 18.4734 5.98594 18.0422 6.13594 18.0609C6.16875 18.0656 6.28594 18.3141 6.40781 18.6328ZM18.5859 18.2344C19.3078 18.3797 20.1469 18.5859 20.1844 18.6234C20.2219 18.6563 19.7016 19.2469 19.2844 19.6406C18.5203 20.3672 17.6953 20.9484 16.7578 21.4266C16.425 21.5953 16.0828 21.7547 15.9984 21.7875L15.8484 21.8391L16.0922 21.5016C16.6594 20.7281 17.2266 19.6406 17.5875 18.6469C17.7 18.3422 17.8125 18.0938 17.8359 18.0938C17.8641 18.0938 18.2016 18.1594 18.5859 18.2344Z" fill="#002333"/>
</svg>
