<svg width="140" height="50" viewBox="0 0 140 50" fill="none" xmlns="http://www.w3.org/2000/svg">
<path d="M128.84 42.5128C128.84 43.7642 129.074 44.653 129.544 45.1792C130.027 45.7196 130.752 45.9898 131.719 45.9898C132.26 45.9898 132.757 45.8689 133.212 45.6271C133.682 45.3996 134.059 44.973 134.343 44.3473C134.627 43.7216 134.77 42.8114 134.77 41.6169V36.9881C134.286 37.5995 133.668 38.1328 132.914 38.5879C132.16 39.0429 131.214 39.2705 130.077 39.2705C129.579 39.2705 128.975 39.178 128.264 38.9932C127.567 38.8083 126.87 38.3817 126.173 37.7133C125.491 37.0307 124.915 35.9713 124.445 34.535C123.99 33.0987 123.763 31.1362 123.763 28.6476V20.9258C123.763 18.5367 123.99 16.6595 124.445 15.2944C124.915 13.9292 125.491 12.9266 126.173 12.2867C126.87 11.6467 127.581 11.2415 128.306 11.0708C129.046 10.9002 129.679 10.8148 130.205 10.8148C131.641 10.8148 132.743 11.1561 133.511 11.8387C134.293 12.5071 134.883 13.2324 135.282 14.0145L135.772 11.1135H139.974V39.3131C139.974 42.5839 139.327 45.1792 138.033 47.099C136.739 49.033 134.656 50 131.783 50C130.489 50 129.309 49.8365 128.242 49.5094C127.176 49.1965 126.323 48.6206 125.683 47.7816C125.057 46.9425 124.744 45.7551 124.744 44.2193C124.744 43.7358 124.836 43.167 125.021 42.5128H128.84ZM131.911 34.8763C132.622 34.8763 133.191 34.6559 133.618 34.215C134.044 33.7742 134.371 33.2836 134.599 32.7432V17.3421C134.329 16.7591 133.966 16.2543 133.511 15.8276C133.07 15.401 132.53 15.1877 131.89 15.1877C131.364 15.1877 130.895 15.3299 130.482 15.6143C130.084 15.8845 129.764 16.4036 129.522 17.1715C129.295 17.9252 129.181 19.0344 129.181 20.4991V29.5008C129.181 30.9514 129.295 32.0677 129.522 32.8498C129.764 33.6177 130.091 34.151 130.503 34.4497C130.916 34.7341 131.385 34.8763 131.911 34.8763Z" fill="#002333"/>
<path d="M102.901 11.1348H107.018L107.551 14.2705V14.2918C108.39 12.9408 109.343 12.0236 110.41 11.5401C111.476 11.0424 112.55 10.7935 113.631 10.7935C115.337 10.7935 116.66 11.3979 117.598 12.6067C118.537 13.8154 119.006 15.6143 119.006 18.0034V40.5077H113.609V18.6434C113.609 17.3493 113.41 16.4534 113.012 15.9556C112.614 15.4437 112.031 15.1877 111.263 15.1877C110.722 15.1877 110.196 15.3655 109.684 15.721C109.172 16.0765 108.71 16.5671 108.298 17.1928V40.5077H102.901V11.1348Z" fill="#002333"/>
<path d="M94.6459 7.06058C93.6505 7.06058 92.847 6.74773 92.2355 6.12201C91.6382 5.4963 91.3396 4.61462 91.3396 3.47696C91.3396 2.21132 91.6382 1.31542 92.2355 0.789249C92.847 0.263083 93.6576 0 94.6672 0C95.7196 0 96.5373 0.284414 97.1203 0.853243C97.7176 1.42207 98.0162 2.29664 98.0162 3.47696C98.0162 4.58618 97.7176 5.46075 97.1203 6.10068C96.5231 6.74062 95.6982 7.06058 94.6459 7.06058ZM91.9795 11.1348H97.3763V40.5077H91.9795V11.1348Z" fill="#002333"/>
<path d="M70.3925 11.1348H74.5094L75.0427 14.2705V14.2918C75.8817 12.9408 76.8345 12.0236 77.901 11.5401C78.9676 11.0424 80.0413 10.7935 81.122 10.7935C82.8285 10.7935 84.151 11.3979 85.0896 12.6067C86.0282 13.8154 86.4975 15.6143 86.4975 18.0034V40.5077H81.1007V18.6434C81.1007 17.3493 80.9016 16.4534 80.5034 15.9556C80.1053 15.4437 79.5222 15.1877 78.7543 15.1877C78.2139 15.1877 77.6877 15.3655 77.1758 15.721C76.6638 16.0765 76.2017 16.5671 75.7893 17.1928V40.5077H70.3925V11.1348Z" fill="#002333"/>
<path d="M54.1382 11.1348H58.0845L58.5538 14.1212C59.1368 13.012 59.8194 12.18 60.6015 11.6254C61.3837 11.0708 62.18 10.7935 62.9906 10.7935C66.0196 10.7935 67.5341 12.6991 67.5341 16.5102C67.5341 16.9938 67.463 17.6337 67.3208 18.43C67.1786 19.2122 67.008 19.9019 66.8089 20.4992H63.0546V18.2167C63.0546 17.0364 62.8769 16.2401 62.5213 15.8277C62.1658 15.401 61.725 15.1877 61.1988 15.1877C60.5304 15.1877 59.9758 15.7139 59.535 16.7662V40.5077H54.1382V11.1348Z" fill="#002333"/>
<path d="M39.8251 24.1894C40.3655 23.9192 40.9485 23.6419 41.5742 23.3575C42.2 23.0731 42.7759 22.8384 43.3021 22.6536V19.0913C43.3021 18.3518 43.2665 17.6621 43.1954 17.0222C43.1385 16.3822 42.9465 15.8632 42.6195 15.465C42.3066 15.0526 41.7662 14.8464 40.9983 14.8464C40.2304 14.8464 39.5407 15.1593 38.9292 15.785C38.3177 16.4107 38.012 17.5697 38.012 19.2619V20.4351H33.8951C33.6391 19.3259 33.5111 18.3589 33.5111 17.5341C33.5111 15.3441 34.2292 13.6803 35.6655 12.5427C37.1018 11.3908 38.9363 10.8148 41.169 10.8148C43.1172 10.8148 44.6388 11.0921 45.7338 11.6467C46.8288 12.1871 47.5967 13.0119 48.0376 14.1212C48.4784 15.2161 48.6988 16.6098 48.6988 18.302V40.5077H44.5393L44.1553 37.9906C43.5865 38.8154 42.8328 39.498 41.8942 40.0384C40.9556 40.5788 39.8678 40.849 38.6306 40.849C37.3507 40.849 36.2984 40.5219 35.4736 39.8677C34.6488 39.2136 34.0302 38.3532 33.6178 37.2867C33.2196 36.2059 33.0205 35.0327 33.0205 33.7671C33.0205 31.3495 33.5964 29.4297 34.7483 28.0077C35.9002 26.5714 37.5924 25.2986 39.8251 24.1894ZM41.0196 36.7321C41.4747 36.7321 41.8942 36.6183 42.2782 36.3908C42.6621 36.149 43.0034 35.8575 43.3021 35.5162V26.2585C43.0319 26.3723 42.7403 26.5074 42.4275 26.6638C42.1146 26.8202 41.752 27.0264 41.3396 27.2824C40.5859 27.7517 39.882 28.4556 39.2278 29.3942C38.5737 30.3185 38.2466 31.4989 38.2466 32.9352C38.2466 34.0586 38.467 34.9758 38.9079 35.6869C39.3487 36.3837 40.0526 36.7321 41.0196 36.7321Z" fill="#002333"/>
<path d="M14.5904 28.477V22.9309C14.5904 20.684 14.7824 18.8211 15.1664 17.3422C15.5503 15.8632 16.0552 14.6829 16.6809 13.8012C17.3208 12.9195 18.0176 12.2654 18.7713 11.8387C19.5393 11.4121 20.3001 11.1348 21.0538 11.0068C21.8075 10.8646 22.4972 10.7935 23.1229 10.7935C24.417 10.7935 25.6115 11.0708 26.7065 11.6254C27.8015 12.1658 28.6761 13.1044 29.3302 14.4411C29.9986 15.7637 30.3328 17.6052 30.3328 19.9659C30.3328 21.1462 30.2688 22.355 30.1408 23.5922C30.0128 24.8151 29.8422 25.8959 29.6288 26.8345H20.0085V29.8208C20.0085 32.3806 20.2218 34.1866 20.6485 35.2389C21.0893 36.2913 21.9212 36.8174 23.1442 36.8174C23.8126 36.8174 24.417 36.533 24.9573 35.9642C25.4977 35.3811 25.7679 34.3146 25.7679 32.7645V31.4847H30.2048V32.8285C30.2048 35.6158 29.5364 37.6493 28.1997 38.9292C26.8771 40.1948 24.9573 40.8277 22.4403 40.8277C19.909 40.8277 17.9679 39.8606 16.6169 37.9266C15.2659 35.9926 14.5904 32.8427 14.5904 28.477ZM25.2986 23.2082C25.3271 22.8953 25.3484 22.4261 25.3626 21.8004C25.3769 21.1604 25.384 20.6485 25.384 20.2645C25.384 18.3163 25.1778 16.9226 24.7654 16.0836C24.353 15.2446 23.6988 14.818 22.8029 14.8038C21.8501 14.8038 21.1462 15.2873 20.6911 16.2543C20.2361 17.2071 20.0085 18.9491 20.0085 21.4804V23.2082H25.2986Z" fill="#002333"/>
<path d="M0 4.07424H5.52475V36.1562H13.0546V40.5077H0V4.07424Z" fill="#002333"/>
</svg>
